<mxfile host="app.diagrams.net" modified="2023-06-25T15:30:07.416Z" agent="Mozilla/5.0 (Windows NT 10.0; Win64; x64) AppleWebKit/537.36 (KHTML, like Gecko) Chrome/114.0.0.0 Safari/537.36" etag="C5DCJDXlQu5t1fUCqUY8" version="21.3.7" type="github">
  <diagram name="第 1 页" id="nK9nr9RQc0oswGVqtCku">
    <mxGraphModel dx="1434" dy="796" grid="1" gridSize="10" guides="1" tooltips="1" connect="1" arrows="1" fold="1" page="1" pageScale="1" pageWidth="827" pageHeight="1169" math="0" shadow="0">
      <root>
        <mxCell id="0" />
        <mxCell id="1" parent="0" />
        <mxCell id="CWfPNIgzdPAa_ksU90Nz-3" value="" style="rounded=0;whiteSpace=wrap;html=1;fillColor=#ffcc99;strokeColor=#36393d;" vertex="1" parent="1">
          <mxGeometry x="50" y="140" width="680" height="300" as="geometry" />
        </mxCell>
        <mxCell id="CWfPNIgzdPAa_ksU90Nz-1" value="&lt;font style=&quot;font-size: 18px;&quot;&gt;Proxy Object&lt;/font&gt;" style="rounded=0;whiteSpace=wrap;html=1;fillColor=#cce5ff;strokeColor=#36393d;" vertex="1" parent="1">
          <mxGeometry x="120" y="240" width="300" height="160" as="geometry" />
        </mxCell>
        <mxCell id="CWfPNIgzdPAa_ksU90Nz-2" value="&lt;font style=&quot;font-size: 18px;&quot;&gt;Target Object&lt;/font&gt;" style="rounded=0;whiteSpace=wrap;html=1;fillColor=#cdeb8b;strokeColor=#36393d;" vertex="1" parent="1">
          <mxGeometry x="490" y="285" width="180" height="90" as="geometry" />
        </mxCell>
        <mxCell id="CWfPNIgzdPAa_ksU90Nz-4" value="&lt;font style=&quot;font-size: 24px;&quot;&gt;Spring Aop&lt;/font&gt;" style="text;html=1;strokeColor=none;fillColor=none;align=center;verticalAlign=middle;whiteSpace=wrap;rounded=0;" vertex="1" parent="1">
          <mxGeometry x="90" y="170" width="130" height="50" as="geometry" />
        </mxCell>
      </root>
    </mxGraphModel>
  </diagram>
</mxfile>
